<?xml version="1.0" standalone="no"?>
<!DOCTYPE svg PUBLIC "-//W3C//DTD SVG 20010904//EN"
 "http://www.w3.org/TR/2001/REC-SVG-20010904/DTD/svg10.dtd">
<svg version="1.0" xmlns="http://www.w3.org/2000/svg"
 width="920.000000pt" height="920.000000pt" viewBox="0 0 920.000000 920.000000"
 preserveAspectRatio="xMidYMid meet">

<g transform="translate(0.000000,920.000000) scale(0.100000,-0.100000)"
fill="#00c119" stroke="black" stroke-width="50" stroke-linecap="butt">
<path d="M4210 9191 c-69 -5 -172 -15 -230 -24 -58 -9 -112 -15 -120 -15 -26
2 -303 -50 -420 -78 -30 -7 -66 -15 -80 -18 -65 -11 -337 -90 -435 -126 -307
-112 -618 -263 -819 -398 -21 -15 -47 -31 -57 -37 -23 -13 -83 -55 -179 -125
-556 -409 -1114 -1037 -1444 -1625 -49 -87 -55 -109 -60 -202 -2 -34 -7 -66
-10 -72 -4 -6 -25 -15 -48 -22 -58 -15 -93 -54 -102 -112 -9 -57 0 -197 19
-322 8 -49 22 -156 31 -236 16 -138 16 -149 -1 -205 -19 -64 -34 -116 -60
-209 -9 -33 -23 -78 -30 -100 -8 -22 -17 -54 -20 -72 -3 -18 -10 -45 -16 -60
-6 -15 -14 -46 -19 -68 -5 -22 -20 -85 -35 -140 -14 -55 -28 -112 -30 -127 -2
-15 -9 -45 -15 -68 -12 -44 -16 -72 -26 -160 -13 -117 33 -236 106 -272 46
-23 57 -11 62 67 6 104 55 135 91 59 22 -45 21 -92 -2 -154 -11 -27 -17 -50
-15 -50 3 0 -14 -33 -113 -220 -51 -95 -107 -255 -121 -346 -14 -96 -4 -342
18 -449 62 -290 159 -480 345 -675 l62 -65 17 -120 c9 -66 24 -163 33 -215 9
-52 18 -110 19 -129 4 -44 51 -275 80 -396 8 -33 17 -73 20 -90 3 -16 17 -73
31 -125 14 -52 28 -104 30 -115 24 -90 58 -197 93 -290 22 -60 42 -114 44
-120 4 -15 70 -148 81 -164 6 -7 26 -30 45 -51 l35 -37 80 4 c108 6 179 27
204 59 26 33 28 113 6 227 -8 43 -17 104 -20 135 -3 32 -12 91 -19 132 -19 99
-28 202 -18 216 17 27 51 35 84 21 47 -20 56 -35 67 -113 5 -38 17 -123 26
-189 9 -66 23 -158 31 -205 7 -47 16 -107 19 -135 9 -84 56 -338 81 -440 8
-33 15 -64 16 -70 0 -5 9 -27 19 -48 39 -75 128 -107 300 -107 84 0 86 -1 108
-31 63 -86 198 -90 301 -9 17 13 59 24 125 34 178 27 219 41 319 106 112 73
185 185 223 340 41 169 11 1024 -53 1510 -8 63 -17 140 -19 170 -7 92 -57 409
-81 520 -8 36 -17 85 -19 110 -3 25 -10 61 -15 80 -5 19 -11 46 -14 60 -2 14
-18 81 -36 150 -17 69 -34 136 -36 150 -3 14 -9 40 -15 58 -6 18 -12 39 -13
45 -8 43 -95 310 -122 372 -6 17 -20 53 -30 80 -35 98 -131 301 -176 371 -65
100 -163 195 -227 218 -47 17 -75 18 -299 13 -255 -6 -418 -23 -483 -52 -24
-11 -41 -29 -52 -54 -25 -57 -58 -81 -136 -101 -39 -10 -71 -16 -71 -14 0 13
-81 -40 -97 -63 -83 -127 -92 -247 -34 -488 14 -55 41 -176 45 -200 2 -11 11
-49 20 -85 8 -36 22 -99 31 -140 16 -77 31 -142 60 -265 28 -117 30 -153 10
-175 -34 -38 -115 -20 -115 25 0 25 -18 123 -48 255 -9 41 -17 84 -18 96 -4
38 -65 208 -90 251 -14 24 -33 47 -44 53 -63 33 -235 -16 -303 -88 -34 -35
-51 -131 -45 -254 3 -67 1 -77 -13 -75 -56 9 -100 111 -143 333 -27 140 -27
240 0 316 11 29 60 134 109 233 107 211 129 271 146 383 21 140 -11 314 -91
488 -21 45 -42 84 -47 87 -16 10 -52 -22 -69 -61 -10 -23 -18 -32 -21 -23 -7
18 15 170 34 241 9 30 17 64 18 75 3 22 41 164 54 205 5 14 17 52 26 85 32
107 65 193 103 271 9 19 52 77 96 127 200 234 246 301 246 356 0 17 -13 50
-31 76 -29 42 -30 47 -15 64 8 9 38 23 66 30 64 17 79 36 181 238 89 177 88
174 147 263 73 112 125 185 184 261 31 41 76 99 100 130 70 90 254 294 316
349 31 28 77 63 101 78 57 35 131 101 131 117 0 7 7 18 16 26 13 11 24 8 72
-18 59 -32 131 -59 179 -67 132 -23 158 -25 207 -15 84 18 201 104 257 189 18
28 63 30 123 5 23 -10 70 -15 135 -15 86 0 109 4 158 25 67 30 79 40 146 120
27 33 56 64 64 68 8 5 41 -2 86 -20 62 -24 86 -28 172 -28 92 0 105 3 170 33
78 37 109 63 166 140 46 60 61 63 121 26 83 -53 229 -70 335 -39 43 13 70 30
114 72 l59 56 59 -56 c66 -63 130 -88 228 -88 91 0 229 40 248 72 14 22 55 8
81 -28 72 -98 130 -141 239 -176 73 -24 200 -16 289 17 37 14 74 23 81 18 7
-4 40 -38 72 -77 45 -53 74 -78 123 -102 61 -31 72 -33 168 -33 66 0 115 5
137 14 30 13 72 20 101 17 6 -1 25 -22 44 -47 33 -47 134 -128 180 -146 71
-27 115 -28 263 -2 53 9 152 46 189 71 41 28 71 27 76 -2 6 -30 40 -63 114
-111 134 -86 363 -333 545 -584 26 -36 50 -67 53 -70 14 -11 158 -229 194
-295 22 -38 68 -127 103 -197 34 -71 73 -139 86 -152 13 -13 49 -31 79 -40 71
-20 78 -37 38 -93 -37 -54 -38 -90 -4 -151 33 -59 35 -62 176 -225 163 -189
178 -219 303 -652 8 -27 16 -61 19 -75 2 -14 11 -52 19 -85 22 -85 40 -206 35
-235 -4 -24 -5 -23 -20 10 -8 19 -24 43 -35 53 -19 16 -22 16 -36 3 -9 -9 -27
-42 -42 -73 -15 -32 -30 -65 -34 -73 -19 -37 -51 -173 -61 -254 -10 -96 -1
-203 27 -291 8 -27 59 -139 114 -247 54 -109 105 -219 115 -245 25 -74 24
-190 -2 -323 -34 -169 -67 -263 -107 -307 -39 -43 -44 -31 -49 109 -3 90 -10
145 -20 169 -27 61 -164 128 -266 129 -45 0 -57 -4 -78 -27 -15 -16 -32 -39
-39 -53 -30 -58 -101 -316 -111 -399 -9 -80 -40 -208 -53 -218 -21 -18 -62
-16 -89 3 -27 18 -26 51 1 164 9 36 23 99 32 140 9 41 23 100 31 131 7 30 16
68 18 85 2 16 10 56 19 89 20 78 43 182 61 275 8 41 22 111 31 156 15 75 15
86 -1 155 -9 41 -25 90 -34 109 -22 43 -87 110 -106 110 -17 0 -10 -1 -95 20
-81 21 -104 38 -131 98 -14 31 -29 46 -56 58 -114 48 -686 75 -784 38 -62 -24
-179 -142 -238 -241 -28 -45 -50 -84 -50 -87 0 -6 -62 -142 -82 -180 -17 -33
-76 -200 -163 -466 -14 -43 -43 -146 -50 -182 -2 -9 -10 -43 -19 -75 -48 -187
-99 -435 -130 -638 -9 -55 -23 -143 -31 -195 -8 -52 -16 -108 -17 -125 0 -16
-9 -88 -19 -160 -9 -71 -17 -142 -17 -157 0 -14 -7 -100 -15 -190 -20 -205
-36 -483 -44 -793 -5 -201 -3 -257 11 -342 32 -190 102 -314 223 -396 90 -62
174 -91 313 -111 80 -12 123 -22 140 -36 100 -79 225 -79 293 0 l32 37 127 5
c113 5 133 9 181 33 52 27 82 64 92 115 2 8 10 40 18 70 24 89 74 354 81 435
2 22 9 68 15 102 7 35 14 84 17 110 2 27 11 86 18 133 8 47 20 125 26 175 12
98 19 112 68 132 28 12 36 11 62 -2 20 -10 30 -23 29 -38 0 -37 -17 -168 -29
-232 -6 -33 -13 -82 -16 -110 -2 -27 -11 -85 -19 -129 -22 -114 -20 -187 6
-220 25 -32 96 -53 202 -59 72 -4 81 -2 108 20 70 59 182 311 253 568 9 33 23
83 31 110 18 64 45 170 50 197 3 12 12 53 20 92 53 233 74 340 80 406 3 30 10
72 16 92 5 21 12 64 14 95 3 32 12 93 20 136 8 44 15 91 15 105 0 19 19 46 69
97 158 160 296 413 326 595 3 19 10 51 15 70 24 89 35 323 22 430 -16 125 -67
266 -156 434 -112 212 -134 288 -99 360 22 47 43 53 70 21 18 -21 23 -38 23
-84 0 -73 13 -87 60 -63 105 52 134 217 79 452 -38 162 -77 313 -94 370 -8 25
-16 56 -19 70 -2 14 -11 45 -19 70 -8 25 -22 74 -32 110 -9 36 -21 76 -26 90
-4 14 -17 60 -29 102 -20 75 -20 81 -5 210 9 73 23 180 32 238 9 58 16 162 17
232 1 149 -8 170 -92 204 -29 11 -54 23 -57 26 -3 3 -7 36 -9 74 -6 102 -15
128 -84 244 -15 25 -36 60 -47 78 -28 46 -164 251 -187 282 -11 14 -52 68 -91
121 -97 130 -180 233 -241 299 -28 31 -100 111 -161 179 -101 113 -208 216
-392 379 -272 240 -588 454 -888 601 -71 35 -141 69 -155 76 -41 22 -336 135
-390 150 -8 3 -53 16 -100 31 -100 30 -224 64 -260 70 -14 3 -43 10 -65 16
-22 6 -50 12 -62 13 -13 2 -55 10 -95 19 -119 25 -239 46 -298 50 -30 3 -104
12 -165 21 -128 18 -741 28 -945 16z m-2770 -4939 c11 -13 20 -36 20 -49 0
-13 7 -52 14 -86 37 -157 48 -206 50 -228 2 -14 10 -56 19 -94 8 -39 23 -108
32 -155 9 -47 24 -116 32 -153 9 -38 17 -81 18 -95 1 -15 9 -61 18 -102 20
-91 40 -193 62 -320 9 -52 23 -128 32 -168 8 -40 17 -91 19 -112 2 -21 10 -69
18 -107 8 -37 21 -115 31 -173 22 -143 44 -275 65 -400 10 -58 26 -152 35
-210 9 -58 23 -139 31 -180 8 -41 16 -97 19 -123 2 -26 9 -64 14 -85 6 -20 12
-59 15 -87 2 -27 11 -90 20 -140 16 -88 29 -167 62 -370 8 -55 24 -152 35
-215 11 -63 26 -158 35 -210 8 -52 19 -118 24 -146 5 -28 6 -61 3 -73 -7 -29
-51 -51 -80 -40 -36 13 -40 27 -79 274 -31 205 -46 292 -60 366 -8 41 -16 93
-18 115 -1 21 -10 77 -19 124 -15 80 -22 124 -62 375 -9 55 -25 154 -36 220
-11 66 -27 163 -35 215 -9 52 -22 129 -30 170 -8 41 -16 95 -19 120 -2 25 -9
67 -15 93 -6 27 -13 69 -15 95 -3 26 -11 79 -19 117 -8 39 -22 115 -31 170 -9
55 -24 136 -32 180 -9 43 -17 93 -19 111 -1 17 -9 58 -17 90 -8 32 -15 66 -15
74 1 8 -6 49 -15 90 -8 41 -23 116 -32 165 -9 50 -24 121 -32 160 -9 38 -17
80 -19 92 -1 12 -9 55 -18 95 -8 40 -22 109 -31 153 -9 44 -22 109 -30 145
-63 283 -64 301 -31 328 31 24 59 19 86 -16z m6402 22 c30 -16 30 -16 25 -77
-4 -34 -11 -78 -17 -97 -5 -19 -12 -52 -15 -73 -3 -20 -11 -65 -19 -100 -22
-92 -42 -191 -61 -292 -9 -49 -25 -128 -35 -175 -10 -47 -25 -121 -34 -165 -8
-44 -22 -118 -31 -165 -10 -47 -19 -101 -21 -120 -3 -19 -9 -53 -15 -75 -6
-22 -12 -53 -14 -70 -1 -16 -10 -66 -18 -110 -17 -87 -37 -196 -61 -345 -9
-52 -25 -149 -36 -215 -31 -184 -47 -280 -65 -395 -10 -58 -23 -139 -31 -180
-7 -41 -16 -95 -19 -120 -3 -25 -11 -79 -19 -120 -8 -41 -21 -122 -31 -180 -9
-58 -23 -145 -32 -193 -8 -49 -17 -109 -19 -135 -3 -26 -9 -64 -15 -84 -5 -21
-12 -59 -14 -85 -3 -26 -12 -84 -19 -128 -8 -44 -22 -127 -31 -185 -22 -146
-36 -212 -47 -233 -22 -42 -86 -37 -106 7 -10 23 -8 43 24 216 9 47 17 101 18
120 1 19 10 73 19 120 8 47 23 132 32 190 9 58 22 141 30 185 8 44 21 130 30
190 9 61 25 157 35 215 10 58 25 150 35 205 9 55 23 136 31 180 8 44 14 91 14
105 0 14 9 68 20 120 10 52 27 142 35 200 29 191 56 348 95 560 12 63 28 153
36 200 9 47 22 118 31 158 8 40 16 86 18 102 2 16 8 46 14 67 6 21 13 57 16
81 2 23 11 70 19 105 8 34 21 98 30 142 9 44 23 114 31 155 9 41 18 86 20 100
6 32 33 158 50 235 8 33 16 77 20 97 4 23 16 45 32 58 31 24 27 24 65 4z
m-6771 -432 c14 -16 34 -93 74 -272 8 -41 24 -111 35 -155 21 -92 42 -186 65
-300 10 -44 25 -118 35 -165 30 -137 47 -219 65 -310 9 -47 23 -117 31 -156 8
-40 17 -85 19 -100 2 -16 9 -51 15 -79 6 -27 13 -63 15 -79 2 -16 11 -65 20
-110 9 -44 22 -115 30 -156 7 -41 23 -122 34 -180 11 -58 27 -148 36 -200 9
-52 22 -131 30 -175 8 -44 21 -120 29 -170 8 -49 24 -144 35 -210 11 -66 27
-163 35 -215 9 -52 23 -138 32 -190 22 -125 22 -185 -1 -210 -21 -23 -34 -25
-69 -8 -25 11 -52 71 -41 88 3 4 -4 54 -15 111 -10 57 -26 151 -35 209 -9 58
-23 145 -32 194 -9 49 -16 96 -16 105 0 9 -6 47 -14 86 -7 38 -16 85 -18 103
-2 19 -11 73 -20 120 -8 48 -22 128 -31 177 -20 113 -41 230 -60 320 -8 39
-16 87 -19 108 -3 21 -11 68 -19 105 -8 37 -22 108 -31 157 -17 94 -47 245
-70 355 -8 36 -21 99 -29 140 -8 41 -23 111 -32 155 -10 44 -18 87 -19 95 -1
8 -10 49 -19 90 -10 41 -24 104 -31 140 -8 36 -22 97 -31 135 -9 39 -18 81
-20 95 -3 14 -10 43 -16 65 -5 22 -12 51 -15 65 -2 14 -11 50 -19 81 -18 74
-18 118 3 141 21 23 64 23 84 0z m7135 10 c33 -22 35 -81 4 -177 -5 -16 -12
-46 -15 -65 -3 -19 -12 -57 -19 -85 -8 -27 -21 -86 -30 -130 -10 -44 -24 -109
-33 -145 -8 -36 -17 -77 -18 -92 -2 -15 -8 -44 -14 -65 -6 -21 -13 -54 -16
-73 -3 -19 -12 -62 -20 -95 -7 -33 -21 -98 -30 -145 -9 -47 -24 -116 -32 -155
-9 -38 -17 -80 -19 -92 -1 -12 -9 -55 -18 -95 -8 -40 -22 -109 -30 -153 -8
-44 -22 -116 -30 -160 -15 -76 -40 -210 -71 -375 -8 -41 -21 -118 -30 -170 -9
-52 -23 -131 -32 -175 -8 -44 -17 -94 -18 -112 -2 -17 -10 -67 -18 -110 -14
-75 -29 -164 -63 -386 -8 -56 -22 -140 -31 -186 -17 -98 -21 -127 -22 -158 -1
-29 -35 -63 -63 -63 -12 0 -30 7 -40 17 -30 27 -26 85 29 393 9 52 16 99 15
103 -2 5 7 59 18 120 11 62 27 153 36 202 21 126 40 235 60 340 9 50 18 104
19 122 2 18 10 65 18 105 15 71 27 136 62 323 9 50 25 135 36 190 11 55 27
136 35 180 9 44 22 109 29 145 7 36 21 103 30 150 9 47 25 121 35 165 10 44
26 118 35 165 9 47 23 112 30 145 52 232 63 278 106 465 13 55 31 104 42 118
20 22 52 28 73 14z"/>
<path d="M3750 2758 c-49 -33 -77 -108 -135 -353 -9 -38 -18 -84 -20 -102 -2
-17 -9 -49 -14 -70 -9 -33 -17 -79 -20 -115 -1 -5 -72 -8 -158 -9 -210 -1
-232 -9 -240 -81 -4 -37 -1 -49 20 -74 l25 -29 211 -3 c244 -4 268 2 295 69 9
22 16 52 16 67 0 15 9 63 19 107 l18 80 12 -165 c6 -91 19 -223 28 -295 9 -71
16 -137 15 -145 -1 -22 27 -119 45 -158 9 -18 27 -39 42 -46 36 -19 96 -14
122 10 24 21 58 90 65 132 2 15 9 49 14 75 6 26 13 86 16 132 3 47 9 106 14
132 l8 48 1 -50 c1 -66 26 -204 44 -247 20 -48 61 -78 107 -78 69 0 149 98
200 243 l24 67 173 0 c207 0 237 8 252 67 5 21 14 64 20 95 6 32 16 84 23 115
l12 58 7 -104 c11 -165 28 -346 46 -471 9 -63 15 -115 14 -115 -2 0 7 -24 18
-52 28 -72 54 -95 109 -99 40 -2 50 2 78 30 19 19 38 53 47 86 17 60 44 244
52 354 5 71 15 103 15 50 1 -77 21 -226 36 -265 39 -102 136 -119 210 -37 29
32 87 142 108 206 l18 52 97 0 c147 0 181 18 181 95 0 26 -7 43 -26 60 -26 24
-31 25 -188 25 -203 0 -202 0 -237 -130 -12 -44 -13 -43 -35 125 -12 94 -27
184 -34 200 -7 17 -13 33 -12 36 0 3 -11 20 -26 38 -23 27 -36 33 -84 38 -55
5 -59 4 -91 -28 -40 -40 -58 -93 -83 -244 l-19 -110 -12 105 c-6 58 -12 139
-12 180 -1 64 -14 199 -35 363 -7 48 -38 100 -70 115 -25 11 -66 8 -96 -8 -22
-12 -62 -97 -83 -175 -46 -173 -87 -356 -87 -385 0 -8 -5 -32 -11 -52 l-10
-38 -183 0 -182 0 -26 -27 c-15 -16 -34 -55 -44 -88 -16 -57 -18 -59 -25 -31
-5 16 -8 57 -8 90 0 55 -7 107 -27 206 -8 42 -47 122 -67 138 -21 18 -98 25
-129 13 -55 -21 -92 -115 -120 -306 -8 -57 -14 -77 -15 -55 -29 425 -46 598
-64 662 -23 85 -88 117 -149 76z"/>
</g>
</svg>
