<?xml version="1.0" encoding="UTF-8"?>
<svg xmlns="http://www.w3.org/2000/svg" xmlns:xlink="http://www.w3.org/1999/xlink" width="34px" height="20px" viewBox="0 0 33 20" version="1.1">
<g id="surface1">
<path style="fill-rule:nonzero;fill:rgb(0%,100%,12.941176%);fill-opacity:1;stroke-width:50;stroke-linecap:butt;stroke-linejoin:miter;stroke:rgb(0%,0%,0%);stroke-opacity:1;stroke-miterlimit:4;" d="M 833.333333 4819.20625 C 673.958333 4792.6375 537.5 4693.515625 462.5 4552.496875 C 396.875 4429.871875 400 4540.234375 400 2635.459375 C 400 1127.171875 402.083333 897.25 414.583333 841.046875 C 456.25 667.328125 590.625 523.24375 769.791667 462.953125 C 822.916667 445.58125 946.875 444.559375 4039.583333 441.49375 C 6439.583333 440.471875 7276.041667 441.49375 7338.541667 450.690625 C 7540.625 479.303125 7698.958333 616.234375 7765.625 819.5875 C 7781.25 867.615625 7784.375 922.796875 7787.5 1228.3375 L 7791.666667 1579.8625 L 7968.75 1579.8625 C 8106.25 1579.8625 8157.291667 1583.95 8193.75 1596.2125 C 8258.333333 1617.671875 8340.625 1696.35625 8370.833333 1761.75625 L 8394.791667 1814.89375 L 8394.791667 2625.240625 C 8394.791667 3431.5 8394.791667 3434.565625 8373.958333 3480.55 C 8342.708333 3547.99375 8287.5 3605.21875 8221.875 3636.896875 C 8166.666667 3664.4875 8159.375 3665.509375 7978.125 3667.553125 L 7791.666667 3671.640625 L 7787.5 4033.384375 C 7783.333333 4428.85 7781.25 4445.2 7719.791667 4557.60625 C 7679.166667 4636.290625 7583.333333 4728.259375 7500 4770.15625 C 7375 4832.490625 7586.458333 4829.425 4085.416667 4828.403125 C 2325 4828.403125 862.5 4824.315625 833.333333 4819.20625 Z M 7358.333333 4480.965625 C 7400 4459.50625 7420.833333 4438.046875 7442.708333 4395.128125 C 7456.25 4367.5375 7458.333333 4163.1625 7458.333333 2635.459375 C 7458.333333 996.371875 7457.291667 903.38125 7439.583333 869.659375 C 7418.75 829.80625 7397.916667 809.36875 7353.125 785.865625 C 7323.958333 770.5375 7048.958333 769.515625 4094.791667 769.515625 C 1408.333333 769.515625 863.541667 771.559375 837.5 783.821875 C 793.75 801.19375 743.75 860.4625 731.25 907.46875 C 715.625 959.584375 715.625 4310.3125 731.25 4363.45 C 742.708333 4409.434375 793.75 4467.68125 835.416667 4486.075 C 860.416667 4497.315625 1447.916667 4499.359375 4092.708333 4500.38125 C 7240.625 4500.38125 7321.875 4500.38125 7358.333333 4480.965625 Z M 8078.125 2623.196875 L 8080.208333 1899.709375 L 7789.583333 1899.709375 L 7789.583333 3350.771875 L 7933.333333 3347.70625 L 8075 3344.640625 Z M 8078.125 2623.196875 " transform="matrix(0.00375,0,0,-0.00382263,0,19.992355)"/>
<path style="fill-rule:nonzero;fill:rgb(0%,100%,12.941176%);fill-opacity:1;stroke-width:50;stroke-linecap:butt;stroke-linejoin:miter;stroke:rgb(0%,0%,0%);stroke-opacity:1;stroke-miterlimit:4;" d="M 3930.208333 2884.796875 C 3930.208333 2576.190625 3926.041667 2359.553125 3920.833333 2359.553125 C 3915.625 2359.553125 3778.125 2409.625 3612.5 2470.9375 C 2486.458333 2887.8625 2207.291667 2990.05 2187.5 2990.05 C 2148.958333 2989.028125 2084.375 2954.284375 2060.416667 2919.540625 C 2026.041667 2872.534375 2021.875 2802.025 2048.958333 2752.975 C 2062.5 2731.515625 2081.25 2708.0125 2092.708333 2698.815625 C 2106.25 2689.61875 2529.166667 2529.184375 3035.416667 2342.18125 C 3828.125 2047.88125 4158.333333 1925.25625 4233.333333 1894.6 C 4248.958333 1888.46875 4250 1916.059375 4250 2402.471875 C 4250 2684.509375 4252.083333 2918.51875 4255.208333 2921.584375 C 4258.333333 2924.65 4581.25 2801.003125 4972.916667 2646.7 C 5860.416667 2299.2625 5817.708333 2312.546875 5869.791667 2328.896875 C 5943.75 2351.378125 6000 2421.8875 6000 2496.484375 C 6000 2530.20625 5959.375 2598.671875 5926.041667 2619.109375 C 5909.375 2630.35 5654.166667 2732.5375 5360.416667 2848.009375 C 5065.625 2964.503125 4667.708333 3119.828125 4475 3195.446875 C 4283.333333 3271.065625 4087.5 3349.75 4040.625 3371.209375 C 3994.791667 3392.66875 3951.041667 3410.040625 3943.75 3410.040625 C 3932.291667 3410.040625 3930.208333 3321.1375 3930.208333 2884.796875 Z M 3930.208333 2884.796875 " transform="matrix(0.00375,0,0,-0.00382263,0,19.992355)"/>
</g>
</svg>
