<?xml version="1.0" encoding="UTF-8"?>
<svg xmlns="http://www.w3.org/2000/svg" xmlns:xlink="http://www.w3.org/1999/xlink" width="34px" height="20px" viewBox="0 0 33 20" version="1.1">
<g id="surface1">
<path style="fill-rule:nonzero;fill:rgb(0%,100%,12.941176%);fill-opacity:1;stroke-width:1.5;stroke-linecap:butt;stroke-linejoin:miter;stroke:rgb(0%,0%,0%);stroke-opacity:1;stroke-miterlimit:4;" d="M 774.479167 178.964062 L 815.520833 178.964062 L 815.520833 345.976758 L 774.479167 345.976758 Z M 774.479167 178.964062 " transform="matrix(0.0375,0,0,0.0382409,0,0)"/>
<path style="fill-rule:nonzero;fill:rgb(0%,100%,12.941176%);fill-opacity:1;stroke-width:1.5;stroke-linecap:butt;stroke-linejoin:miter;stroke:rgb(0%,0%,0%);stroke-opacity:1;stroke-miterlimit:4;" d="M 66.458333 66.907227 L 754.479167 66.907227 L 754.479167 457.931445 L 66.458333 457.931445 Z M 66.458333 66.907227 " transform="matrix(0.0375,0,0,0.0382409,0,0)"/>
<path style="fill-rule:nonzero;fill:rgb(0%,0%,0%);fill-opacity:1;stroke-width:50;stroke-linecap:butt;stroke-linejoin:miter;stroke:rgb(0%,0%,0%);stroke-opacity:1;stroke-miterlimit:4;" d="M 833.333321 4819.363209 C 673.958323 4792.804616 537.499992 4693.720633 462.499993 4551.734307 C 396.874994 4430.177668 399.999994 4540.497979 399.999994 2635.429648 C 399.999994 1126.697249 402.083327 896.863268 414.583327 840.681628 C 456.249993 667.029287 590.624991 522.999992 769.791655 462.732415 C 822.916654 446.388665 946.874986 445.367181 4039.583273 442.302728 C 6439.583237 440.259759 7276.041558 442.302728 7338.541557 451.496087 C 7540.624888 479.076165 7698.958219 615.955069 7765.624884 820.251941 C 7781.249884 868.261706 7784.374884 923.421861 7787.499884 1227.8242 L 7791.666551 1580.236305 L 7968.749881 1580.236305 C 8106.249879 1580.236305 8157.291545 1584.322242 8193.749878 1595.55857 C 8258.33321 1618.031226 8340.624876 1695.664037 8370.833209 1762.060521 L 8394.791542 1815.177707 L 8394.791542 2625.214805 C 8394.791542 3431.165964 8394.791542 3435.251902 8373.958209 3481.218698 C 8342.708209 3547.615182 8287.499877 3604.818306 8221.874877 3637.505805 C 8166.666545 3664.064399 8159.374878 3665.085883 7978.124881 3668.150336 L 7791.666551 3672.236273 L 7787.499884 4032.820252 C 7783.333217 4429.156184 7781.249884 4445.499934 7719.791552 4557.863213 C 7679.166552 4635.496025 7583.33322 4728.451101 7499.999888 4770.33196 C 7374.99989 4832.642506 7586.45822 4828.556569 4085.416606 4827.535084 C 2324.999965 4827.535084 862.499987 4824.470631 833.333321 4819.363209 Z M 7358.333224 4481.251886 C 7399.99989 4459.800715 7420.833223 4438.349543 7442.708222 4395.4472 C 7456.249889 4367.867122 7458.333222 4162.548766 7458.333222 2635.429648 C 7458.333222 995.947251 7457.291556 902.992174 7439.583222 870.304675 C 7418.749889 830.466785 7397.916556 809.015613 7353.12489 785.521473 C 7323.958224 771.220692 7048.958228 770.199207 4094.791606 770.199207 C 1408.333312 770.199207 863.541654 772.242176 837.499988 784.499988 C 793.749988 800.843738 743.749989 860.089831 731.249989 907.078111 C 715.624989 960.195298 715.624989 4309.642514 731.249989 4362.759701 C 742.708322 4408.726497 793.749988 4467.97259 835.416654 4486.359308 C 860.416654 4496.574152 1447.916645 4498.61712 4092.708272 4499.638605 C 7240.624892 4499.638605 7321.874891 4499.638605 7358.333224 4481.251886 Z M 8078.12488 2623.171836 L 8080.208213 1899.960909 L 7789.583217 1899.960909 L 7789.583217 3351.490184 L 7933.333215 3348.425731 L 8074.99988 3345.361278 Z M 8078.12488 2623.171836 " transform="matrix(0.00375,0,0,-0.00382409,0,20)"/>
<path style="fill-rule:nonzero;fill:rgb(0%,0%,0%);fill-opacity:1;stroke-width:50;stroke-linecap:butt;stroke-linejoin:miter;stroke:rgb(0%,0%,0%);stroke-opacity:1;stroke-miterlimit:4;" d="M 3930.208275 2884.671832 C 3930.208275 2576.183555 3926.041608 2359.628871 3920.833275 2359.628871 C 3915.624942 2359.628871 3778.124944 2409.681605 3612.499946 2470.970666 C 2486.458296 2887.736285 2207.291634 2989.884721 2187.499967 2989.884721 C 2148.958301 2988.863237 2084.374969 2954.132768 2060.416636 2920.423785 C 2026.041636 2873.435504 2021.87497 2801.931599 2048.958303 2752.90035 C 2062.499969 2732.470662 2081.249969 2707.955038 2092.708302 2698.761679 C 2106.249969 2689.568319 2529.166629 2529.195275 3035.416621 2342.263637 C 3828.124943 2048.076141 4158.333271 1925.498018 4233.33327 1894.853487 C 4248.95827 1887.703097 4249.999937 1916.304659 4249.999937 2401.50973 C 4249.999937 2685.482382 4252.08327 2919.4023 4255.20827 2922.466753 C 4258.33327 2924.509722 4581.249932 2800.910115 4972.916593 2646.665976 C 5860.416579 2299.361294 5817.708247 2312.640591 5869.791579 2328.98434 C 5943.749911 2351.456996 5999.999911 2421.939417 5999.999911 2496.507775 C 5999.999911 2530.216759 5959.374911 2598.656211 5926.041578 2619.085898 C 5909.374912 2630.322226 5654.166582 2733.492147 5360.416587 2847.898395 C 5065.624925 2964.347612 4667.708264 3119.613235 4474.999933 3195.203077 C 4283.33327 3270.79292 4087.499939 3350.4687 4040.62494 3370.898387 C 3994.791607 3393.371043 3951.041608 3409.714793 3943.749941 3409.714793 C 3932.291608 3409.714793 3930.208275 3320.845654 3930.208275 2884.671832 Z M 3930.208275 2884.671832 " transform="matrix(0.00375,0,0,-0.00382409,0,20)"/>
</g>
</svg>
