<?xml version="1.0" encoding="UTF-8"?>
<svg xmlns="http://www.w3.org/2000/svg" xmlns:xlink="http://www.w3.org/1999/xlink" width="35pt" height="20pt" viewBox="0 0 35 20" version="1.1">
<g id="surface1">
<path style="fill-rule:nonzero;fill:rgb(100%,0%,0%);fill-opacity:1;stroke-width:50;stroke-linecap:butt;stroke-linejoin:miter;stroke:rgb(0%,0%,0%);stroke-opacity:1;stroke-miterlimit:4;" d="M 3895.625 5109 C 3843.258929 5096 3798.080357 5067 3751.875 5015 C 3702.589286 4959 3695.401786 4933 3664.598214 4710 C 3651.25 4608 3636.875 4515 3633.794643 4503 L 3629.6875 4480 L 3371.964286 4480 C 3085.491071 4480 3029.017857 4472 2928.392857 4418 C 2859.598214 4382 2770.267857 4290 2735.357143 4219 C 2698.392857 4147 2679.910714 4058 2679.910714 3943 L 2679.910714 3840 L 6520.089286 3840 L 6520.089286 3943 C 6520.089286 4124 6480.044643 4232 6376.339286 4336 C 6251.071429 4461 6179.196429 4480 5828.035714 4480 L 5570.3125 4480 L 5565.178571 4503 C 5563.125 4515 5548.75 4608 5535.401786 4709 C 5521.026786 4810 5504.598214 4910 5498.4375 4932 C 5482.008929 4985 5411.160714 5063 5351.607143 5092 L 5305.401786 5115 L 4619.508929 5117 C 4224.196429 5118 3919.241071 5114 3895.625 5109 Z M 5222.232143 4670 C 5231.473214 4601 5240.714286 4530 5242.767857 4513 L 5248.928571 4480 L 4598.973214 4480 C 3983.928571 4480 3949.017857 4481 3954.151786 4498 C 3956.205357 4507 3966.473214 4574 3974.6875 4645 C 3983.928571 4717 3993.169643 4781 3995.223214 4788 C 3999.330357 4798 4124.598214 4800 4602.053571 4798 L 5204.776786 4795 Z M 5222.232143 4670 " transform="matrix(0.00380435,0,0,-0.00390625,0,20)"/>
<path style="fill-rule:nonzero;fill:rgb(100%,0%,0%);fill-opacity:1;stroke-width:50;stroke-linecap:butt;stroke-linejoin:miter;stroke:rgb(0%,0%,0%);stroke-opacity:1;stroke-miterlimit:4;" d="M 2997.1875 3506 C 2895.535714 3479 2809.285714 3383 2793.883929 3282 C 2782.589286 3211 3046.473214 334 3071.116071 248 C 3096.785714 159 3170.714286 76 3262.098214 34 L 3324.732143 5 L 5875.267857 5 L 5935.848214 33 C 6039.553571 81 6117.589286 177 6140.178571 284 C 6157.633929 373 6412.276786 3212 6406.116071 3268 C 6399.955357 3336 6355.803571 3415 6301.383929 3457 C 6214.107143 3524 6317.8125 3520 4601.026786 3519 C 3358.616071 3519 3035.178571 3516 2997.1875 3506 Z M 3960.3125 1760 L 3960.3125 640 L 3480.803571 640 L 3475.669643 693 C 3469.508929 740 3319.598214 2843 3319.598214 2869 C 3319.598214 2877 3414.0625 2880 3639.955357 2880 L 3960.3125 2880 Z M 4920.357143 1760 L 4920.357143 640 L 4279.642857 640 L 4279.642857 2880 L 4920.357143 2880 Z M 5880.401786 2869 C 5880.401786 2843 5730.491071 740 5724.330357 693 L 5719.196429 640 L 5239.6875 640 L 5239.6875 2880 L 5560.044643 2880 C 5785.9375 2880 5880.401786 2877 5880.401786 2869 Z M 5880.401786 2869 " transform="matrix(0.00380435,0,0,-0.00390625,0,20)"/>
</g>
</svg>
